<svg width="64" height="64" viewBox="0 0 44 44" fill="none" xmlns="http://www.w3.org/2000/svg">
  <defs>
    <radialGradient id="badgeGlow" cx="50%" cy="50%" r="50%" fx="50%" fy="50%">
      <stop offset="0%" stop-color="#A5B4FC" stop-opacity="0.7" />
      <stop offset="60%" stop-color="#6366F1" stop-opacity="0.5" />
      <stop offset="100%" stop-color="#312E81" stop-opacity="0.3" />
    </radialGradient>
    <linearGradient id="bookGradient" x1="10" y1="10" x2="34" y2="34" gradientUnits="userSpaceOnUse">
      <stop stop-color="#FDE68A" />
      <stop offset="1" stop-color="#F59E42" />
    </linearGradient>
    <linearGradient id="noteGradient2" x1="28" y1="14" x2="36" y2="34" gradientUnits="userSpaceOnUse">
      <stop stop-color="#F472B6" />
      <stop offset="1" stop-color="#7C3AED" />
    </linearGradient>
  </defs>
  <circle cx="22" cy="22" r="20" fill="url(#badgeGlow)" />
  <g>
    <rect x="11" y="13" width="10" height="18" rx="3" fill="url(#bookGradient)" stroke="#fff" stroke-width="1.5" />
    <rect x="23" y="13" width="10" height="18" rx="3" fill="#fff" fill-opacity="0.95" stroke="#fff" stroke-width="1.5" />
    <rect x="20.5" y="13" width="3" height="18" rx="1.2" fill="#F59E42" fill-opacity="0.7" />
    <line x1="14" y1="18" x2="19" y2="18" stroke="#F59E42" stroke-width="0.8" opacity="0.5" />
    <line x1="14" y1="22" x2="19" y2="22" stroke="#F59E42" stroke-width="0.8" opacity="0.3" />
    <line x1="14" y1="26" x2="19" y2="26" stroke="#F59E42" stroke-width="0.8" opacity="0.2" />
  </g>
  <g>
    <path d="M32 16V29A3 3 0 1 1 28 26" stroke="url(#noteGradient2)" stroke-width="2.2" stroke-linecap="round" stroke-linejoin="round" />
    <circle cx="28" cy="29" r="2.2" fill="url(#noteGradient2)" />
    <rect x="32" y="13" width="2.5" height="5" rx="1.2" fill="url(#noteGradient2)" />
  </g>
</svg> 